<svg xmlns="http://www.w3.org/2000/svg" data-name="Layer 1" viewBox="0 0 100 125" x="0px" y="0px"><title>My sweet hearts</title><path d="M68.86871,9.60272c-8.53552,0-15.22448,5.80445-18.86871,9.87982-3.64423-4.07537-10.33319-9.87982-18.86871-9.87982A26.16089,26.16089,0,0,0,5,35.73352C5,69.71661,47.22913,89.14789,49.02673,89.95831l.97327.439.97327-.439C52.77087,89.14789,95,69.71661,95,35.73352A26.16089,26.16089,0,0,0,68.86871,9.60272ZM49.99908,85.17291C43.75513,82.0907,9.73682,63.99127,9.73682,35.73352a21.41846,21.41846,0,0,1,21.39447-21.394c5.7,0,12.05023,3.84729,16.98877,10.29108L50,27.08417l1.87994-2.45355c4.93854-6.44379,11.28882-10.29108,16.98877-10.29108a21.41846,21.41846,0,0,1,21.39447,21.394C90.26318,63.9538,56.23932,82.08655,49.99908,85.17291Z" fill="#0f3057"/><text x="0" y="115" fill="#000000" font-size="5px" font-weight="bold" font-family="'Helvetica Neue', Helvetica, Arial-Unicode, Arial, Sans-serif">Created by Lnhi</text><text x="0" y="120" fill="#000000" font-size="5px" font-weight="bold" font-family="'Helvetica Neue', Helvetica, Arial-Unicode, Arial, Sans-serif">from the Noun Project</text></svg>