<svg xmlns="http://www.w3.org/2000/svg" xmlns:xlink="http://www.w3.org/1999/xlink" xml:space="preserve" version="1.1" style="shape-rendering:geometricPrecision;text-rendering:geometricPrecision;image-rendering:optimizeQuality;" viewBox="0 0 1.129 1.41125" x="0px" y="0px" fill-rule="evenodd" clip-rule="evenodd"><defs><style type="text/css">
   
    .fil0 {fill:black;fill-rule:nonzero}
   
  </style></defs><g><path class="fil0" d="M0.506 0c0.139,0 0.266,0.057 0.357,0.148 0.092,0.092 0.148,0.218 0.148,0.358 0,0.126 -0.047,0.242 -0.124,0.331l0.231 0.231c0.014,0.014 0.014,0.037 0,0.05 -0.013,0.014 -0.036,0.014 -0.05,0l-0.231 -0.231c-0.089,0.077 -0.205,0.124 -0.331,0.124 -0.14,0 -0.266,-0.056 -0.358,-0.148 -0.091,-0.091 -0.148,-0.218 -0.148,-0.357 0,-0.14 0.057,-0.266 0.148,-0.358 0.092,-0.091 0.218,-0.148 0.358,-0.148zm0 0.431c0.019,0 0.036,-0.008 0.048,-0.02l0.002 -0.002c0.011,-0.012 0.019,-0.028 0.019,-0.047 0,-0.019 -0.008,-0.036 -0.021,-0.049l0 0c-0.012,-0.012 -0.029,-0.02 -0.048,-0.02 -0.019,0 -0.037,0.008 -0.049,0.02l-0.002 0.002c-0.011,0.012 -0.018,0.029 -0.018,0.047 0,0.019 0.007,0.037 0.02,0.049l0 0c0.012,0.012 0.029,0.02 0.048,0.02l0.001 0zm0 0.071l0 0 -0.001 0 -0.041 0c-0.025,0 -0.047,0.01 -0.064,0.026l0 0c-0.016,0.016 -0.026,0.039 -0.026,0.063l0 0.09 0.263 0 0 -0.09c0,-0.024 -0.01,-0.047 -0.026,-0.063l-0.002 -0.002c-0.016,-0.015 -0.038,-0.024 -0.062,-0.024l-0.041 0zm-0.111 -0.055c-0.018,-0.024 -0.029,-0.053 -0.029,-0.085 0,-0.037 0.015,-0.071 0.039,-0.096l0.002 -0.002c0.025,-0.026 0.06,-0.041 0.099,-0.041 0.038,0 0.073,0.015 0.098,0.041l0 0c0.025,0.025 0.041,0.06 0.041,0.098 0,0.032 -0.011,0.061 -0.029,0.085 0.016,0.007 0.03,0.017 0.042,0.029l0.003 0.002c0.029,0.029 0.047,0.069 0.047,0.113l0 0.125c0,0.02 -0.016,0.036 -0.036,0.036l-0.333 0c-0.02,0 -0.035,-0.016 -0.035,-0.036l0 -0.125c0,-0.044 0.018,-0.084 0.047,-0.113l0 0c0.012,-0.013 0.027,-0.023 0.044,-0.031zm0.418 -0.249c-0.079,-0.079 -0.187,-0.127 -0.307,-0.127 -0.121,0 -0.229,0.048 -0.308,0.127 -0.079,0.079 -0.127,0.187 -0.127,0.308 0,0.12 0.048,0.228 0.127,0.307 0.079,0.079 0.187,0.128 0.308,0.128 0.12,0 0.228,-0.049 0.307,-0.128 0.079,-0.079 0.128,-0.187 0.128,-0.307 0,-0.121 -0.049,-0.229 -0.128,-0.308z"/></g><text x="0" y="16.129" fill="#000000" font-size="5px" font-weight="bold" font-family="'Helvetica Neue', Helvetica, Arial-Unicode, Arial, Sans-serif">Created by Deemak Daksina</text><text x="0" y="21.129" fill="#000000" font-size="5px" font-weight="bold" font-family="'Helvetica Neue', Helvetica, Arial-Unicode, Arial, Sans-serif">from the Noun Project</text></svg>