<svg xmlns="http://www.w3.org/2000/svg" xmlns:xlink="http://www.w3.org/1999/xlink" version="1.1" x="0px" y="0px" viewBox="0 0 100 125" enable-background="new 0 0 100 100" xml:space="preserve"><path d="M57.7060814,21.9250698c0.1222839,0.0082626,0.2445679,0.0200367,0.3669548,0.0373878  c0.3204803,0.0448227,0.5685616,0.1065845,0.8044548,0.2007771l0.4538116,0.1813602l-0.4538116,0.1813622  c-0.2340355,0.0929527-0.4893456,0.1569862-0.8044548,0.201189c-0.1223869,0.0167332-0.2446709,0.0285072-0.3665428,0.0369759  c-0.0084686,0.1220779-0.0202446,0.2443619-0.0373878,0.3670597c-0.0450287,0.3203754-0.1067924,0.5684566-0.200779,0.8043499  l-0.1814613,0.4538136l-0.1813622-0.4538136c-0.0937805-0.2350674-0.1558495-0.4831486-0.2012939-0.8039379  c-0.0167313-0.1231098-0.0285072-0.2453938-0.0369759-0.3678856c-0.1222839-0.0082626-0.2441559-0.0200367-0.3664398-0.0373878  c-0.3220291-0.0456486-0.5697975-0.1074104-0.804142-0.2003632l-0.456913-0.1817741l0.456913-0.1809483  c0.2354813-0.0933666,0.4835587-0.1551285,0.80373-0.2005711c0.1226959-0.0171452,0.2449837-0.0289192,0.3672676-0.0373878  c0.0084686-0.1222839,0.0202408-0.2445679,0.0373878-0.3668518c0.0453377-0.3207912,0.1071014-0.5684586,0.2004662-0.8043499  l0.1813622-0.4577408l0.1814613,0.4577408c0.0921288,0.2334137,0.1557503,0.4887238,0.1999512,0.8043499  C57.6854248,21.680294,57.6976128,21.802578,57.7060814,21.9250698z M54.8695793,16.7232361  c0.1282768,0.018383,0.2560349,0.030571,0.3842049,0.0392456c0.0088806,0.1284809,0.0212746,0.2567558,0.0388336,0.3858566  c0.0476112,0.3362827,0.1126785,0.596344,0.2110023,0.8427715l0.1901398,0.4757099l0.1902428-0.4757099  c0.0985298-0.2474613,0.1631851-0.5073147,0.2104874-0.8431835c0.017971-0.1286888,0.0303612-0.2569637,0.0392456-0.3850307  c0.127655-0.0086765,0.255928-0.0210686,0.3842049-0.0386276c0.3302917-0.0464764,0.5979919-0.1134014,0.8433876-0.2108994  l0.4757118-0.1902428l-0.4757118-0.1900368c-0.2473564-0.0987358-0.5074158-0.1635952-0.8433876-0.2104855  c-0.1282768-0.018177-0.2565498-0.030571-0.3847198-0.0392466c-0.0088844-0.1284809-0.0215874-0.2565489-0.0395584-0.3844099  c-0.0464745-0.3309116-0.1130905-0.5984087-0.2096596-0.8431835l-0.1902428-0.4798422l-0.1901398,0.4798422  c-0.0979118,0.2472534-0.1626663,0.5069017-0.2101746,0.8431835c-0.017971,0.128274-0.030365,0.2563419-0.0392494,0.3846169  c-0.12817,0.0088825-0.25634,0.0212755-0.3850288,0.0392466c-0.3356628,0.0477161-0.5957222,0.1123686-0.8425636,0.2102785  l-0.4790154,0.1896248l0.4790154,0.1906548C54.2723083,16.6108665,54.5320587,16.6755199,54.8695793,16.7232361z   M53.336689,20.6559563c0.1053467,0.0146656,0.2104836,0.0249939,0.3158302,0.0320168  c0.0072327,0.1053467,0.0173531,0.2106934,0.0318108,0.3168659c0.0390396,0.2763786,0.0925407,0.4899635,0.1733055,0.6923943  l0.1561623,0.3910198l0.1563644-0.3910198c0.0809746-0.2030506,0.1341629-0.4168415,0.1728935-0.6928082  c0.0147667-0.1057587,0.0249939-0.2111053,0.0322227-0.3160381c0.1049347-0.0072289,0.2102814-0.0173512,0.315731-0.0318108  c0.2714195-0.0380077,0.4913025-0.0931587,0.6929092-0.1733055l0.3908119-0.1563663l-0.3908119-0.1561604  c-0.2032585-0.0809727-0.4168434-0.134264-0.6929092-0.1728916c-0.1054497-0.0148716-0.2107964-0.0249939-0.316143-0.0322227  c-0.0072289-0.1053467-0.017662-0.2106934-0.0324326-0.3158321c-0.0381088-0.2716293-0.0929527-0.4916172-0.1722717-0.6928082  L54.0137978,18.56287l-0.1561623,0.3941193c-0.0803528,0.2032566-0.1336441,0.4166355-0.1726837,0.6928082  c-0.0146675,0.1053448-0.0248909,0.2108974-0.0321198,0.3162441c-0.1053467,0.0072308-0.2107964,0.0173512-0.316349,0.0320168  c-0.2757607,0.0392475-0.4894485,0.0923328-0.6922913,0.1726856l-0.3935013,0.1559544l0.3935013,0.1565723  C52.8461037,20.5634174,53.0593796,20.6165028,53.336689,20.6559563z M32.6315994,78.5990906v5.2524414  c0,0.81633-0.664299,1.4806366-1.480629,1.4806366h-8.6231098c-0.81633,0-1.4806309-0.6643066-1.4806309-1.4806366v-5.2524414  c0-0.81633,0.6643009-1.480629,1.4806309-1.480629h8.6231098C31.9673004,77.1184616,32.6315994,77.7827606,32.6315994,78.5990906z   M31.3624878,78.5990906c0-0.1165009-0.0950184-0.2115173-0.2115173-0.2115173h-8.6231098  c-0.1165009,0-0.2115192,0.0950165-0.2115192,0.2115173v5.2524414c0,0.1165009,0.0950184,0.2115173,0.2115192,0.2115173h8.6231098  c0.1164989,0,0.2115173-0.0950165,0.2115173-0.2115173V78.5990906z M34.1469345,61.8624611  c-0.5256996,0-0.9518356,0.426136-0.9518356,0.9518356v5.3937263c0,0.5257034,0.426136,0.9518356,0.9518356,0.9518356  s0.9518356-0.4261322,0.9518356-0.9518356v-5.3937263C35.0987701,62.2885971,34.6726341,61.8624611,34.1469345,61.8624611z   M65.7338791,77.8587799v-9.0250778c0-0.6998291,0.5692825-1.2691116,1.2691116-1.2691116h5.2173233  c0.6998367,0,1.2691193,0.5692825,1.2691193,1.2691116v9.0250778c0,0.6998291-0.5692825,1.2691116-1.2691193,1.2691116h-5.2173233  C66.3031616,79.1278915,65.7338791,78.558609,65.7338791,77.8587799z M66.5799561,77.8587799  c0,0.2334137,0.189621,0.4230347,0.4230347,0.4230347h5.2173233c0.2334213,0,0.4230423-0.189621,0.4230423-0.4230347v-9.0250778  c0-0.2334137-0.189621-0.4230423-0.4230423-0.4230423h-5.2173233c-0.2334137,0-0.4230347,0.1896286-0.4230347,0.4230423V77.8587799z   M67.6375504,70.9488907h2.9674606c0.2338257,0,0.4230347-0.1892166,0.4230347-0.4230423s-0.189209-0.4230347-0.4230347-0.4230347  h-2.9674606c-0.2338257,0-0.4230423,0.189209-0.4230423,0.4230347S67.4037247,70.9488907,67.6375504,70.9488907z   M67.6375504,72.7352295h2.9674606c0.2338257,0,0.4230347-0.189209,0.4230347-0.4230347  c0-0.2338333-0.189209-0.4230423-0.4230347-0.4230423h-2.9674606c-0.2338257,0-0.4230423,0.189209-0.4230423,0.4230423  C67.2145081,72.5460205,67.4037247,72.7352295,67.6375504,72.7352295z M67.6375504,74.5211563h3.7366943  c0.2338257,0,0.4230347-0.189209,0.4230347-0.4230347s-0.189209-0.4230347-0.4230347-0.4230347h-3.7366943  c-0.2338257,0-0.4230423,0.189209-0.4230423,0.4230347S67.4037247,74.5211563,67.6375504,74.5211563z M67.6375504,76.3075027  h3.7366943c0.2338257,0,0.4230347-0.189209,0.4230347-0.4230423c0-0.2338257-0.189209-0.4230347-0.4230347-0.4230347h-3.7366943  c-0.2338257,0-0.4230423,0.189209-0.4230423,0.4230347C67.2145081,76.1182938,67.4037247,76.3075027,67.6375504,76.3075027z   M53.0427513,65.1676483c0.6998291,0,1.2691116,0.5692825,1.2691116,1.2691116v12.1268005  c0,0.6998367-0.5692825,1.2691193-1.2691116,1.2691193h-6.6628418c-0.6998291,0-1.2691116-0.5692825-1.2691116-1.2691193V66.4367599  c0-0.6998291,0.5692825-1.2691116,1.2691116-1.2691116H53.0427513z M53.0427513,66.0137253h-6.6628418  c-0.2334137,0-0.4230385,0.189621-0.4230385,0.4230347v12.1268005c0,0.2334213,0.1896248,0.4230423,0.4230385,0.4230423h6.6628418  c0.2334137,0,0.4230385-0.189621,0.4230385-0.4230423V66.4367599C53.4657898,66.2033463,53.276165,66.0137253,53.0427513,66.0137253  z M32.6315994,46.9063873v5.2524414c0,0.8163338-0.664299,1.4806328-1.480629,1.4806328h-8.6231098  c-0.81633,0-1.4806309-0.664299-1.4806309-1.4806328v-5.2524414c0-0.81633,0.6643009-1.480629,1.4806309-1.480629h8.6231098  C31.9673004,45.4257584,32.6315994,46.0900574,32.6315994,46.9063873z M31.3624878,46.9063873  c0-0.116497-0.0950184-0.2115173-0.2115173-0.2115173h-8.6231098c-0.1165009,0-0.2115192,0.0950203-0.2115192,0.2115173v5.2524414  c0,0.1165009,0.0950184,0.2115211,0.2115192,0.2115211h8.6231098c0.1164989,0,0.2115173-0.0950203,0.2115173-0.2115211V46.9063873z   M32.6315994,57.575695v15.6065331c0,0.81633-0.664299,1.480629-1.480629,1.480629h-8.6231098  c-0.81633,0-1.4806309-0.664299-1.4806309-1.480629V57.575695c0-0.81633,0.6643009-1.4806328,1.4806309-1.4806328h8.6231098  C31.9673004,56.0950623,32.6315994,56.7593651,32.6315994,57.575695z M31.3624878,57.575695  c0-0.1165009-0.0950184-0.2115173-0.2115173-0.2115173h-8.6231098c-0.1165009,0-0.2115192,0.0950165-0.2115192,0.2115173v15.6065331  c0,0.1165009,0.0950184,0.2115173,0.2115192,0.2115173h8.6231098c0.1164989,0,0.2115173-0.0950165,0.2115173-0.2115173V57.575695z   M41.9882088,22.514389c-0.8006325-3.6268044-0.5139236-6.1435471,0.852375-7.4799986  c1.2811966-1.2530012,3.0497742-1.0117378,3.4891319-0.9272537c1.0338402-0.2249451,2.107132-0.0340824,3.0343857,0.5380917  c0.882431,0.5438766,1.5248337,1.3630991,1.7185898,2.191823c0.267395,1.2152004,0.0446167,2.7057457-0.3991814,5.675478  l-0.0481262,0.3195515c-0.0058861,0.0392456-0.011879,0.0776672-0.0173531,0.1154671  c0.0843811-0.0264397,0.1818771-0.0208626,0.2773094,0.0190029c0.1932373,0.079113,0.267807,0.3174858,0.2059402,0.5170231  c-0.0051613,0.0156994-0.5159874,1.5723457-2.8908234,0.9782753c-0.0024796-0.0006199-0.0039253-0.0012398-0.0061989-0.0018597  c0.0308838,0.1557484,0.0767403,0.2865009,0.1528549,0.3579712c0.0879974,0.0828304,0.4926491,0.3616886,1.9939384,0.4726124  c0.2224655,0.0161114,0.389576,0.2098656,0.3730507,0.432127c-0.0152855,0.2127571-0.1928253,0.3742886-0.4022789,0.3742886  c-0.0098114,0-0.0201416-0.000206-0.030056-0.0010338c-1.2806778-0.0943985-2.094738-0.3199635-2.4880295-0.6895008  c-0.2761726-0.2596474-0.4211807-0.6554184-0.4398727-1.1701698c-0.0009308-0.0249939-0.0054741-0.0464764-0.0058861-0.0718842  c-0.0005188-0.0458565,0.0066071-0.0987358,0.0079498-0.146244c-0.1567802,0.0873756-0.3256416,0.1642151-0.5086555,0.2181282  c-0.0964661,0.0282993-0.1943741,0.0541191-0.2968292,0.0665131l-0.2847443,0.0078487  c-0.1371574-0.0119801-0.267601-0.0382137-0.3913307-0.0743618c-0.2101746-0.0615559-0.3965988-0.1543007-0.5671158-0.2528305  c0.0023766,0.0594883,0.0105362,0.1239357,0.0098152,0.1809464c-0.0002098,0.0254078-0.0049591,0.0468903-0.0057869,0.0718842  c-0.018589,0.5151634-0.1638031,0.9109344-0.4399757,1.1701698c-0.3927765,0.3695374-1.2069359,0.5951023-2.4880295,0.6895008  c-0.0099144,0.0008278-0.0200348,0.0010338-0.029953,0.0010338c-0.2094536,0-0.3868866-0.1615314-0.4023819-0.3742886  c-0.0165215-0.2222614,0.1507912-0.4160156,0.3732567-0.432127c1.5014954-0.1109238,1.905838-0.389782,1.9941444-0.4726124  c0.0741539-0.0698185,0.1198044-0.1952,0.1511002-0.3455772c-0.3562164,0.0848961-0.6731834,0.1247635-0.9486351,0.1247635  c-1.5235939,0-1.8838387-1.1001453-1.887764-1.1135731c-0.0618629-0.1995373,0.0386276-0.4129162,0.2319717-0.4926472  c0.0689888-0.0282993,0.1415977-0.0373878,0.2121353-0.0260277c-0.0200348-0.1063786-0.0440979-0.2106934-0.066925-0.3096352  L41.9882088,22.514389z M43.4555168,19.3321056c0.1175346,0.9640217,0.2583046,1.76548,0.675972,2.454361c0,0,0,0,0.000412,0  c0.1811562,0.298481,0.4221115,0.5812645,0.736393,0.8640461c0.0596962,0.0532932,0.1219749,0.1072063,0.1870422,0.1609116  c0.1155701,0.0946045,0.238266,0.1898289,0.3703651,0.2840214c0.1690674,0.1204262,0.3744926,0.2513847,0.5864258,0.3329773  c0.0967751,0.0371799,0.1942711,0.0671329,0.2911491,0.0760136l0.2003632-0.006609  c0.0766335-0.0099144,0.157917-0.0363541,0.2400246-0.0694046c0.2061501-0.0834503,0.4174614-0.2212276,0.5737228-0.3325634  c0.1333351-0.0946064,0.2560349-0.1902428,0.3723297-0.285675c0.0643425-0.0526733,0.1262093-0.1063786,0.1862144-0.1604977  c0.3143845-0.2827835,0.5549278-0.5651512,0.7356682-0.8632202c0.3197556-0.5267315,0.4779816-1.1129513,0.5880775-1.8069973  c-0.2957954-0.0671329-0.6216431-0.1656628-0.9726944-0.2935238c-0.5206375-0.1894169-1.1572609-0.4666233-1.8916893-0.8239746  l-0.2469444-0.1210442c-0.6010933-0.298275-1.1285477-0.5794048-1.4408684-0.7494049  C44.1958351,18.5461388,43.7962418,18.9954109,43.4555168,19.3321056z M76.9931259,44.5429153v36.3353729  c0,1.2782059-1.0402451,2.3184433-2.3184433,2.3184433H43.7255974c-1.2782021,0-2.3184433-1.0402374-2.3184433-2.3184433V44.5429153  c0-1.2782021,1.0402412-2.3184433,2.3184433-2.3184433h30.9490852  C75.9528809,42.224472,76.9931259,43.2647133,76.9931259,44.5429153z M53.8698235,51.1318092h10.6606331v-7.2994652H53.8698235  V51.1318092z M43.0150261,51.1318092h9.5856857v-7.2994652h-8.8751144c-0.3920555,0-0.7105713,0.3185158-0.7105713,0.7105713  V51.1318092z M75.3852539,53.6700325H43.0150261v27.2082558c0,0.3920593,0.3185158,0.7105713,0.7105713,0.7105713h30.9490852  c0.3920517,0,0.7105713-0.318512,0.7105713-0.7105713V53.6700325z M75.3852539,44.5429153  c0-0.3920555-0.3185196-0.7105713-0.7105713-0.7105713h-8.8751144v7.2994652h9.5856857V44.5429153z M92.83638,43.0284081V53.745636  c0,0.9096947-0.7403183,1.6500092-1.6500168,1.6500092h-6.6273117c-0.9096985,0-1.6500092-0.7403145-1.6500092-1.6500092v-1.5934143  h-0.9452286v34.3271866c0,1.2781982-1.0402374,2.3184433-2.3184433,2.3184433H34.5922813H19.0869617h-4.4047136  c-1.2782011,0-2.3184443-1.0402451-2.3184443-2.3184433V39.7736206c-0.4186993,0.1592598-0.8664207,0.2584076-1.3393431,0.2584076  c-2.1323328,0-3.8608379-1.7677498-3.8608379-3.9484177c0-0.3753242,0.0675454-0.7310219,0.1631837-1.0749474  c0.0101213-0.1251755,0.0342889-0.249939,0.0894408-0.3699493l2.8096476-6.1224785  c0.0026846-0.005785,0.0072289-0.0103283,0.0099144-0.0161133v-14.979826c0-1.2782021,1.0402431-2.3184443,2.3184443-2.3184443  h69.2195282c1.2781982,0,2.3184433,1.0402422,2.3184433,2.3184443v14.979414  c0.0026855,0.0057831,0.007225,0.0103283,0.0099106,0.0161114v0.0004139l2.8092346,6.1228905  c0.0549469,0.1198044,0.0793228,0.2441559,0.089447,0.3689194c0.0956345,0.3441315,0.1632843,0.7002411,0.1632843,1.0755653  c0,2.1806679-1.7286072,3.9484177-3.8608398,3.9484177c-0.4729233,0-0.920639-0.0991478-1.339447-0.2584076v4.8482018h0.9452286  v-1.5934143c0-0.9096985,0.7403107-1.650013,1.6500092-1.650013h6.6273117  C92.0960617,41.3783951,92.83638,42.1187096,92.83638,43.0284081z M11.8436823,27.5935249  c0.1655598-0.0210686,0.3309116-0.0340824,0.4895506-0.0340824h69.6611481c0.158844,0,0.3243027,0.0130138,0.4899673,0.0340824  V13.5202961c0-0.3920536-0.3185196-0.7105713-0.7105713-0.7105713H12.5542536c-0.3920536,0-0.7105713,0.3185177-0.7105713,0.7105713  V27.5935249z M35.6494637,44.8899384c0-0.5833282-0.4742661-1.0575943-1.0571823-1.0575943H19.0869617  c-0.5833282,0-1.0575943,0.4742661-1.0575943,1.0575943v41.2424469c0,0.5833282,0.4742661,1.0575943,1.0575943,1.0575943h15.5053196  c0.5829163,0,1.0571823-0.4742661,1.0571823-1.0575943V44.8899384z M80.3559418,38.6063423  c-0.1230087-0.1503754-0.237648-0.3052979-0.3380356-0.4732323c-0.6782455,1.1346397-1.8899384,1.8989182-3.2854614,1.8989182  c-1.3955307,0-2.6070099-0.7642784-3.2853622-1.8989182c-0.6783447,1.1346397-1.8898239,1.8989182-3.2853546,1.8989182  c-1.3956299,0-2.6072159-0.7642784-3.2854614-1.8989182c-0.6782455,1.1346397-1.8899307,1.8989182-3.2854614,1.8989182  c-1.3955269,0-2.6070099-0.7642784-3.2853584-1.8989182c-0.6782417,1.1346397-1.8898277,1.8989182-3.2853584,1.8989182  c-1.3955269,0-2.6071129-0.7642784-3.2853546-1.8989182c-0.6783485,1.1346397-1.8899345,1.8989182-3.2854614,1.8989182  c-1.3955307,0-2.6071167-0.7642784-3.2854614-1.8989182c-0.6782455,1.1346397-1.8898315,1.8989182-3.2853584,1.8989182  s-2.6070099-0.7642784-3.2853584-1.8989182c-0.6783485,1.1346397-1.8898277,1.8989182-3.2854614,1.8989182  c-1.3955269,0-2.6071129-0.7642784-3.2853584-1.8989182c-0.6782417,1.1346397-1.8899307,1.8989182-3.2854595,1.8989182  c-1.3954258,0-2.6070118-0.7642784-3.2853584-1.8989182c-0.6783466,1.1346397-1.8899326,1.8989182-3.2853584,1.8989182  c-1.3955269,0-2.6071129-0.7642784-3.2853565-1.8989182c-0.6783485,1.1346397-1.8899326,1.8989182-3.2854614,1.8989182  c-1.3956318,0-2.6071138-0.7642784-3.2854614-1.8989182c-0.1003885,0.1679344-0.2151337,0.3230629-0.3381405,0.4732323v47.8730659  c0,0.3920517,0.3185177,0.7105713,0.7105703,0.7105713h1.960578c-0.1411858-0.3247147-0.2213306-0.6816559-0.2213306-1.0575943  V44.8899384c0-1.4694786,1.1959896-2.6654663,2.6654663-2.6654663h15.5053196c1.4694786,0,2.6650543,1.1959877,2.6650543,2.6654663  v41.2424469c0,0.3759384-0.0801468,0.7328796-0.2212257,1.0575943h42.6092606c0.3920517,0,0.7105713-0.3185196,0.7105713-0.7105713  V38.6063423z M84.8036194,34.8936081c0.1776428,0,0.3234787-0.0173492,0.4375-0.0408974l-1.2125168-2.64254l-0.3615875-0.7882385  l-0.9798203-2.1356373c-0.0429688-0.0200367-0.1152649-0.0431709-0.2028427-0.0640335  c-0.1255951-0.0299511-0.2885666-0.054945-0.4899673-0.054945H12.3332329c-0.2013969,0-0.3640642,0.0249939-0.4895506,0.054945  c-0.0875816,0.0208626-0.1598778,0.0439968-0.2028427,0.0640335l-0.9799271,2.1354313l-0.3616886,0.7884445l-1.2127218,2.64254  c0.1140223,0.0235481,0.2598543,0.0408974,0.4374971,0.0408974h3.0251942h0.9267368h0.456604h0.7546721h5.8161469h0.7545681  h5.8161469h0.754776h5.8161488h0.7545662h5.8161469h0.754673h5.8161469h0.754673h5.8161469h0.7545662h5.8162498h0.754673h5.8161507  h0.7545624h5.8161469h0.7546768h5.816246h0.75457h0.456604h0.9266357H84.8036194z M82.9090424,46.2296944h-0.9452286v4.3146515  h0.9452286V46.2296944z M91.2285004,43.0284081l-6.6694489-0.042141l-0.0064011,1.6355553l-0.0063019,1.607872l-0.0168381,4.3146515  l-0.0064011,1.6078758l-0.0061951,1.5934143l6.6694489,0.0421371c0.02314,0,0.0421371-0.0190048,0.0421371-0.0421371V43.0284081z   M45.7668343,60.3613815c0.1082382,0,0.2164764-0.0413132,0.2991028-0.1239395l3.5169106-3.5169106  c0.1652527-0.1652489,0.1652527-0.4329529,0-0.5982018c-0.1652489-0.1652489-0.4329491-0.1652489-0.5981979,0l-3.5169144,3.5169144  c-0.1652489,0.1652489-0.1652489,0.4329491,0,0.5981979C45.5503578,60.3200684,45.658596,60.3613815,45.7668343,60.3613815z   M45.1740036,63.5424232c0.1082382,0,0.2164764-0.0413094,0.2991028-0.1239357l7.5522957-7.5522957  c0.1652489-0.1652489,0.1652489-0.4329529,0-0.5982018s-0.4329529-0.1652489-0.5982018,0l-7.5522957,7.5522957  c-0.1652489,0.1652489-0.1652489,0.4329529,0,0.5982018C44.9575272,63.5011139,45.0657654,63.5424232,45.1740036,63.5424232z" fill="#0f3057" /><text x="0" y="115" fill="#0f3057" font-size="5px" font-weight="bold" font-family="'Helvetica Neue', Helvetica, Arial-Unicode, Arial, Sans-serif">Created by Llisole</text><text x="0" y="120" fill="#0f3057" font-size="5px" font-weight="bold" font-family="'Helvetica Neue', Helvetica, Arial-Unicode, Arial, Sans-serif">from the Noun Project</text></svg>