<svg xmlns="http://www.w3.org/2000/svg" xmlns:xlink="http://www.w3.org/1999/xlink" version="1.1" x="0px" y="0px" viewBox="0 0 100 125" enable-background="new 0 0 100 100" xml:space="preserve"><path fill-rule="evenodd" clip-rule="evenodd" d="M90.723,52.614c-2.052-13.294-10.202-25.57-19.687-32.21  c-8.647-6.055-21.573-7.822-33.137-4.798C22.237,19.703,4.196,40.076,9.807,66.247c2.037,9.505,9.451,15.794,16.723,18.492  c5.847,2.171,2.113,0.95-0.805-2.02c-5.332-5.433-9.052-13.375-9.777-21.193c-1.509-16.236,8.658-19.367,15.857-26.303  c1.853-1.785,2.656-2.991,2.656-2.991c9.344,7.576,18.891,10.693,28.634,2.825c16.693-0.243,20.211,28.825,8.319,42.377  c-3.314,3.78-8.436,3.3-11.942-0.434c1.744,7.587,7.658,9.33,13.534,8.295c9.253-1.63,17.117-8.94,18.137-23.304  C91.352,59.017,91.229,55.87,90.723,52.614z" fill="#00587a"/><text x="0" y="115" fill="#000000" font-size="5px" font-weight="bold" font-family="'Helvetica Neue', Helvetica, Arial-Unicode, Arial, Sans-serif">Created by Jacqueline Fernandes</text><text x="0" y="120" fill="#000000" font-size="5px" font-weight="bold" font-family="'Helvetica Neue', Helvetica, Arial-Unicode, Arial, Sans-serif">from the Noun Project</text></svg>