<svg xmlns="http://www.w3.org/2000/svg" xmlns:xlink="http://www.w3.org/1999/xlink" version="1.1" x="0px" y="0px" viewBox="0 0 100 125" enable-background="new 0 0 100 100" xml:space="preserve"><path d="M87.687,77.157c-3.831,0-6.971,2.946-7.285,6.696c-1.524-6.312-0.331-15.037,2.27-25.118  c4.552-17.652,0.745-28.801-3.236-35.052c-2.699-4.537-30.845-31.312-60.197-1.792c0,0-16.112,6.479-2.366,36.844  c4.372,9.654,4.956,18.732,2.73,25.271c-0.241-3.822-3.408-6.849-7.29-6.849C8.274,77.157,5,80.431,5,84.47  c0,4.039,3.274,7.315,7.314,7.315c0.807,0,1.581-0.136,2.308-0.378l-0.002,0.002c0.002-0.001,0.004-0.002,0.006-0.003  c1.156-0.385,2.18-1.05,2.998-1.916c10.593-8.577,2.038-26.866,4.434-39.15c4.112-5.865,6.029-10.505,6.751-14.134  c2.22,2.299,5.898,4.15,12.514,4.839c21.389,2.228,31.372,1.875,35.845,12.482c-0.731,13.934-4.111,32.035,7.759,37.882  c-0.134-0.105-0.247-0.229-0.375-0.339c0.952,0.453,2.013,0.714,3.137,0.714c4.039,0,7.313-3.275,7.313-7.315  C95,80.431,91.727,77.157,87.687,77.157z" fill="#20366b"/><text x="0" y="115" fill="#000000" font-size="5px" font-weight="bold" font-family="'Helvetica Neue', Helvetica, Arial-Unicode, Arial, Sans-serif">Created by Alena Artemova</text><text x="0" y="120" fill="#000000" font-size="5px" font-weight="bold" font-family="'Helvetica Neue', Helvetica, Arial-Unicode, Arial, Sans-serif">from the Noun Project</text></svg>